# xmcd
#
# Track frame offsets: 
#        150
#        10454
#        27812
#        56834
#        68182
#        90253
#        100488
#        123077
#        133014
#        173318
#        195814
#        217265
#        238255
#
# Disc length: 3378 seconds
#
# Revision: 2
# Processed by: cddbd v1.5.2PL0 Copyright (c) Steve Scherf et al.
# Submitted via: ExactAudioCopy v1.0b1
#
DISCID=ab0d300d
DTITLE=Zu - Igneo
DYEAR=2001
DGENRE=Jazz
TTITLE0=The Elusive Character of Victory
TTITLE1=Solar anus
TTITLE2=Eli, Eli, Elu
TTITLE3=Arbol de la Esperanza Mantente Firme
TTITLE4=Monte Zu
TTITLE5=Untitled Samba for Kat Ex
TTITLE6=Muro Torto
TTITLE7=Tikkun olam
TTITLE8=Mar Glaciale Artico
TTITLE9=Igneo (Giuseppe Ielasi remix)
TTITLE10=Igneo (Dj Olive remix)
TTITLE11=Torto Moro (Andy Moor remix)
TTITLE12=Igneo Dead Verse (Dälek remix)
EXTD=YEAR: 2001
EXTT0=
EXTT1=
EXTT2=
EXTT3=
EXTT4=
EXTT5=
EXTT6=
EXTT7=
EXTT8=
EXTT9=
EXTT10=
EXTT11=
EXTT12=
PLAYORDER=
